<?xml version="1.0" encoding="UTF-8"?>
<svg id="Layer_2" data-name="Layer 2" xmlns="http://www.w3.org/2000/svg" viewBox="0 0 202 202">
  <defs>
    <style>
      .cls-1 {
        fill: #fff;
      }

      .cls-2 {
        fill: #f15a29;
      }

      .cls-3 {
        fill: none;
      }
    </style>
  </defs>
  <g id="Layer_1-2" data-name="Layer 1">
    <path class="cls-3" d="m202,36v132c-8.17,10.39-16.04,21.06-26.91,28.95-2.13,1.55-4.06,3.36-6.09,5.05H31c-7.68-7.19-15.46-14.27-23-21.6C5.06,177.54,2.65,174.15,0,171c0-46,0-92,0-138C9.75,20.37,21.02,9.31,34,0h132c14.04,9.96,26.1,21.9,36,36Zm-53.06,34.52c-25.01-31.23-58.18-28.85-77.21-17.72-23.29,13.62-34.02,39.29-27.38,65.05,6.37,24.73,28.38,41.99,54.99,43.12,19.86.85,45.01-13.64,50.19-29.35-1.37-.56-2.79-1.14-4.02-1.65-23.28,25.17-44.23,31.25-67.59,19.91-21.35-10.37-32.45-32.17-28.64-56.3,3.36-21.29,21.86-39.09,43.86-42.19,19.8-2.79,42.83,7.94,50.23,23.95-5.03-1.17-9.63-2.23-14.66-3.4-.5,1.7-.89,3.02-1.5,5.07,8.25,2.17,16.02,4.21,24.69,6.49,2.19-8.46,4.2-16.22,6.33-24.47-2.18-.52-3.51-.85-5.34-1.29-1.34,4.31-2.55,8.2-3.97,12.78Zm-56.47-6.51v43.87c9.23,4.44,18.45,8.89,28.07,13.51.96-1.82,1.6-3.05,2.55-4.86-8.54-4.19-16.67-8.18-25.25-12.39v-39.84c-1.98-.11-3.23-.18-5.36-.29Z"/>
    <path class="cls-1" d="m202,36c-9.9-14.1-21.96-26.04-36-36h36v36Z"/>
    <path class="cls-1" d="m34,0C21.02,9.31,9.75,20.37,0,33V0c11.33,0,22.67,0,34,0Z"/>
    <path class="cls-3" d="m169,202c2.02-1.69,3.96-3.5,6.09-5.05,10.87-7.9,18.74-18.56,26.91-28.95v34c-11,0-22,0-33,0Z"/>
    <path class="cls-1" d="m0,171c2.65,3.15,5.06,6.54,8,9.4,7.54,7.33,15.32,14.42,23,21.6H0c0-10.33,0-20.67,0-31Z"/>
    <path class="cls-2" d="m148.94,70.52c1.42-4.58,2.63-8.47,3.97-12.78,1.83.44,3.16.76,5.34,1.29-2.13,8.25-4.14,16.01-6.33,24.47-8.67-2.28-16.44-4.32-24.69-6.49.6-2.04.99-3.36,1.5-5.07,5.03,1.17,9.62,2.23,14.66,3.4-7.4-16-30.44-26.73-50.23-23.95-21.99,3.1-40.5,20.89-43.86,42.19-3.81,24.13,7.28,45.94,28.64,56.3,23.36,11.34,44.31,5.26,67.59-19.91,1.23.51,2.65,1.08,4.02,1.65-5.18,15.71-30.33,30.2-50.19,29.35-26.62-1.14-48.62-18.39-54.99-43.12-6.64-25.76,4.09-51.43,27.38-65.05,19.03-11.13,52.2-13.52,77.21,17.72Z"/>
    <path class="cls-2" d="m92.47,64.02c2.13.12,3.38.18,5.36.29v39.84c8.58,4.21,16.71,8.2,25.25,12.39-.95,1.81-1.59,3.04-2.55,4.86-9.61-4.63-18.84-9.07-28.07-13.51v-43.87Z"/>
  </g>
</svg>