<?xml version="1.0" encoding="UTF-8"?>
<svg id="Layer_2" data-name="Layer 2" xmlns="http://www.w3.org/2000/svg" viewBox="0 0 108 117">
  <defs>
    <style>
      .cls-1 {
        fill: #fff;
      }

      .cls-2 {
        fill: none;
      }
    </style>
  </defs>
  <g id="die_line" data-name="die line">
    <path class="cls-2" d="m0,117V0h108v117H0Zm17.36-56.97c0,14.65.08,29.3-.06,43.95-.03,3.71.89,5.3,5.02,5.23,13.98-.24,27.97.04,41.95-.22,2.34-.04,5.14-1.29,6.89-2.9,6-5.51,11.81-11.27,17.3-17.29,1.7-1.86,3.01-4.84,3.04-7.32.24-21.3.05-42.61.21-63.92.03-4.16-.92-5.82-5.52-5.77-21.14.24-42.28.25-63.42,0-4.65-.05-5.54,1.68-5.49,5.8.19,14.15.07,28.3.08,42.45Z"/>
    <path class="cls-1" d="m17.36,60.03c0-14.15.12-28.3-.07-42.45-.05-4.12.84-5.86,5.49-5.8,21.14.25,42.28.25,63.42,0,4.6-.05,5.55,1.6,5.52,5.77-.16,21.31.03,42.62-.21,63.92-.03,2.48-1.34,5.46-3.04,7.32-5.49,6.02-11.3,11.78-17.3,17.29-1.75,1.61-4.55,2.86-6.89,2.9-13.98.27-27.97-.02-41.95.22-4.13.07-5.06-1.52-5.02-5.23.14-14.65.06-29.3.05-43.95Zm68.22,22.12V17.51H23.28v86.24c13.03,0,25.66.07,38.28-.14.94-.02,2.54-1.94,2.63-3.07.33-4.14.35-8.33.12-12.48-.24-4.3,1.48-6.1,5.78-5.95,4.98.17,9.96.04,15.48.04Zm-3.77,5.38h-11.34v10.65c3.75-3.52,7.28-6.84,11.34-10.65Z"/>
    <path class="cls-2" d="m85.58,82.15c-5.52,0-10.51.13-15.48-.04-4.3-.15-6.02,1.65-5.78,5.95.23,4.15.22,8.34-.12,12.48-.09,1.13-1.7,3.05-2.63,3.07-12.62.21-25.25.14-38.28.14V17.51h62.3v64.64Zm-9.61-17.38c-13.37,0-26.66-.07-39.94.11-1.33.02-2.64,1.5-3.96,2.3,1.36.98,2.7,2.78,4.07,2.8,12.15.22,24.31.06,36.46.17,3.44.03,4.57-1.29,3.38-5.38Zm-21.98-29.58c6.31,0,12.64.15,18.94-.13,1.23-.05,2.38-1.73,3.57-2.66-1.14-.83-2.27-2.38-3.42-2.39-12.46-.17-24.93-.19-37.38.02-1.22.02-2.41,1.78-3.62,2.73,1.16.81,2.29,2.27,3.48,2.32,6.14.24,12.29.11,18.44.11Zm21.75,17.04c.41-.55.82-1.11,1.23-1.66-1.13-.93-2.24-2.65-3.38-2.67-12.83-.19-25.66-.17-38.48-.02-1.01.01-2,1.44-2.99,2.22,1.06.71,2.11,2.03,3.18,2.04,13.48.14,26.97.09,40.45.09Z"/>
    <path class="cls-2" d="m81.8,87.53c-4.06,3.81-7.59,7.13-11.34,10.65v-10.65h11.34Z"/>
    <path class="cls-1" d="m75.97,64.77c1.19,4.09.06,5.41-3.38,5.38-12.15-.11-24.31.05-36.46-.17-1.37-.03-2.71-1.82-4.07-2.8,1.32-.8,2.63-2.28,3.96-2.3,13.28-.17,26.57-.11,39.94-.11Z"/>
    <path class="cls-1" d="m53.99,35.18c-6.15,0-12.3.13-18.44-.11-1.19-.05-2.32-1.51-3.48-2.32,1.21-.95,2.4-2.71,3.62-2.73,12.46-.2,24.92-.19,37.38-.02,1.15.02,2.28,1.56,3.42,2.39-1.19.93-2.34,2.61-3.57,2.66-6.3.27-12.62.13-18.94.12Z"/>
    <path class="cls-1" d="m75.73,52.23c-13.48,0-26.97.05-40.45-.09-1.07-.01-2.12-1.33-3.18-2.04,1-.77,1.99-2.21,2.99-2.22,12.83-.15,25.66-.17,38.48.02,1.14.02,2.26,1.74,3.38,2.67-.41.55-.82,1.11-1.23,1.66Z"/>
  </g>
</svg>