<?xml version="1.0" encoding="UTF-8"?>
<svg id="Layer_2" data-name="Layer 2" xmlns="http://www.w3.org/2000/svg" viewBox="0 0 240 240">
  <defs>
    <style>
      .cls-1 {
        fill: #f15a29;
      }

      .cls-2 {
        fill: none;
      }
    </style>
  </defs>
  <g id="Layer_1-2" data-name="Layer 1">
    <path class="cls-2" d="m240,240H0V0h240v240Zm-173.5-43c27,0,54,.03,80.99-.05,3.02,0,6.1-.4,9.05-1.06,6.5-1.45,18.88-10.69,22.44-16.56,1.12-1.84,2.06-3.8,2.93-5.78.8-1.83,1.51-3.72,2.06-5.64.61-2.14,1.28-4.25,1.08-6.58-.19-2.22,1.05-4.23,1.04-6.58-.13-31.99-.12-63.99-.05-95.98,0-4.28-.88-7.98-4.68-10.77h-111.7c-.5,0-1-.02-1.5,0-3.49.17-5.93,2.5-6.14,5.89-.06,1,0,2,0,3v135.59c1.68,1.69,3.09,3.1,4.5,4.52Z"/>
    <path class="cls-1" d="m66.5,197c-1.41-1.41-2.82-2.83-4.5-4.52V56.89c0-1-.05-2,0-3,.21-3.39,2.66-5.72,6.14-5.89.5-.02,1,0,1.5,0h111.7c3.81,2.79,4.69,6.49,4.68,10.77-.07,31.99-.08,63.99.05,95.98,0,2.35-1.23,4.36-1.04,6.58.2,2.33-.46,4.45-1.08,6.58-.55,1.92-1.26,3.81-2.06,5.64-.87,1.98-1.82,3.94-2.93,5.78-3.55,5.86-15.93,15.1-22.44,16.56-2.95.66-6.03,1.05-9.05,1.06-27,.08-53.99.05-80.99.05Zm-.5-142.39c0,44.28,0,88.58,0,132.87,0,4.44.06,4.51,4.35,4.51,21.81.01,43.63,0,65.44.02,3.77,0,7.27-1.4,10-3.52,5.98-4.64,10.08-10.65,10.22-18.67.03-1.88.87-2.95,2.53-2.77,3.5.38,6.46-1.38,9.65-2.15,1.43-.34,2.71-1.56,3.91-2.56,1.28-1.06,2.4-2.31,3.55-3.51,3.4-3.57,5.35-7.77,5.35-12.77,0-29.64,0-59.28,0-88.92,0-1,.29-2.13-.08-2.96-.39-.87-1.3-1.67-2.18-2.12-.66-.34-1.63-.07-2.46-.07-34.8,0-69.61.04-104.41-.07-2.59,0-4.44.61-5.87,2.68Zm83.09,137.12c3.91,1.3,7.27-.84,10.49-2.02,6-2.19,10.53-6.78,14.67-11.54,3.53-4.05,5.01-9.21,6.69-14.19.3-.88-.18-2.02-.41-4.01-1.28,1.76-1.84,2.83-2.68,3.61-1.03.96-2.35,1.61-3.43,2.52-3.33,2.81-7.05,4.7-11.46,4.87-1.72.07-2.68.69-2.99,2.44-.19,1.05-.76,2.04-.95,3.09-.91,5.05-5.72,12.52-9.93,15.23Z"/>
    <path class="cls-2" d="m66,54.61c1.43-2.07,3.28-2.69,5.87-2.68,34.8.11,69.61.07,104.41.07.83,0,1.8-.27,2.46.07.88.45,1.79,1.24,2.18,2.12.37.84.08,1.96.08,2.96,0,29.64,0,59.28,0,88.92,0,5-1.94,9.2-5.35,12.77-1.15,1.21-2.27,2.45-3.55,3.51-1.2,1-2.48,2.22-3.91,2.56-3.19.77-6.15,2.53-9.65,2.15-1.66-.18-2.5.89-2.53,2.77-.14,8.02-4.24,14.03-10.22,18.67-2.73,2.12-6.22,3.52-10,3.52-21.81-.03-43.63,0-65.44-.02-4.29,0-4.35-.07-4.35-4.51,0-44.3,0-88.59,0-132.87Zm9.08,25.39h91.81c1.16,0,2.33.05,3.49-.01,1.72-.1,2.58-.94,2.59-2.75.05-5.49.05-10.98,0-16.48-.02-1.81-.87-2.65-2.59-2.75-1.16-.07-2.33-.01-3.49-.01h-91.81v22Zm66.92,11.5q-3.91-.6-4.12,5.12c-5.97,2.47-6.37,9.17-2.05,12.7,1.1.9,2.29,1.68,3.47,2.48.9.62,1.96,1.06,2.74,1.8,1.36,1.29,1.35,3.53.14,4.74-1.21,1.22-2.25.71-4.18-.68-1.46-1.05-.49-2.52-1.31-3.51-3.86.26-4.19.98-2.95,4.22.64,1.67,1.85,2.62,2.94,3.77.82.87,1.3,1.66,1.39,2.96.19,2.61.54,2.73,3.93,2.58v-3.77c1.96-1.66,3.54-3,5-4.23,0-1.42-.07-2.59.01-3.75.29-3.96-1.2-6.61-5.11-7.98-1.58-.55-3.05-1.7-4.27-2.89-1.45-1.42-.58-3.73,1.42-4.01,1.26-.18,2.56-.03,4-.03-.48,2.66,1.04,3.76,2.59,4.9,2.22-3.35,1.89-7.24-1.33-8.75-2.23-1.04-2.33-2.33-2.3-4.15,0-.5,0-1,0-1.5Zm5,74.8c0-.96-.09-2.14.02-3.29.37-3.99-1.18-6.64-5.04-8.05-1.43-.52-2.66-1.61-3.98-2.45-1.17-.75-1.36-2.02-.86-3.01.35-.71,1.46-1.23,2.33-1.43,1.07-.24,2.23-.06,3.52-.06-.32,2.51.9,3.85,2.64,4.88,2.37-3.34,1.82-6.73-1.7-8.82-1.5-.89-2.07-1.86-1.94-3.47.06-.79.01-1.59.01-2.39q-3.95.13-4.05,5.35c-5.68,2.38-6.86,8.86-1.82,13.05,1.08.9,2.33,1.6,3.49,2.4,1.04.72,2.22,1.32,3.04,2.24.92,1.03.34,3.63-.78,4.36-1.31.85-2.28.38-3.45-.58-1.31-1.07-1.37-2.45-1.65-3.82-3.89.13-4.32.92-3.08,4.08.9,2.3,2.95,3.42,4.09,5.01.59,1.41-.47,2.98.95,3.87.84.53,1.92.68,3.21,1.11v-5.02c.61-.11,1.21-.03,1.49-.29,1.21-1.14,2.32-2.37,3.57-3.68Zm-53-45.3c5.67,0,11.33.02,17-.01,1.88-.01,2.94-.91,3-2.36.07-1.58-.88-2.54-2.75-2.61-2-.07-4-.02-6-.02-8.33,0-16.66,0-25,0-4.31,0-5.35.52-5.25,2.62.08,1.92,1.02,2.37,5,2.37,4.67,0,9.33,0,14,0Zm.25,47h15.5c.83,0,1.75.23,2.48-.05,1.05-.41,1.9-1.15,1.8-2.57-.1-1.36-.84-2.05-2.03-2.36-.47-.12-.99-.02-1.49-.02h-31.99c-.5,0-1.02-.1-1.49.02-1.2.3-1.93.99-2.04,2.35-.11,1.42.75,2.16,1.8,2.57.72.28,1.65.05,2.48.05h15Zm8.84-57.74c-2.31-1.65-2.99-3.35-5.25-3.31-6.65.14-13.31.02-19.97.07-1.91.01-2.87.94-2.87,2.49,0,1.54.96,2.47,2.87,2.48,7.15.04,14.31.07,21.46-.04.95-.01,1.9-.82,3.75-1.69Zm-.96,46.38c-1.17-.81-1.61-2.64-3.62-2.64-6.99,0-13.98,0-20.96,0-1.61,0-2.34.95-2.51,2.34-.2,1.56.84,2.63,2.68,2.64,7.15.05,14.31,0,21.46.04,1.56.01,2.44-.62,2.95-2.39Zm-27.01-53.64c3.69,0,7.28.04,10.87-.01,2.41-.04,2.7-.49,2.82-3.85-4.59-1.68-9.16-1.86-13.69.11v3.75Zm-.03,47h8.83c.66,0,1.32-.05,1.98,0,1.69.15,2.8-.46,3.11-2.23.2-1.09-.99-2.75-2.54-2.71-3.79.11-7.75-1.03-11.38,1.32v3.61Z"/>
    <path class="cls-2" d="m149.09,191.73c4.21-2.71,9.02-10.18,9.93-15.23.19-1.05.77-2.04.95-3.09.31-1.74,1.27-2.37,2.99-2.44,4.41-.17,8.13-2.06,11.46-4.87,1.08-.91,2.4-1.56,3.43-2.52.84-.78,1.4-1.85,2.68-3.61.23,1.99.71,3.13.41,4.01-1.68,4.98-3.16,10.14-6.69,14.19-4.14,4.75-8.67,9.35-14.67,11.54-3.23,1.18-6.58,3.32-10.49,2.02Z"/>
    <path class="cls-1" d="m75.08,80v-22h91.81c1.16,0,2.33-.05,3.49.01,1.72.1,2.57.94,2.59,2.75.05,5.49.05,10.98,0,16.48-.02,1.81-.87,2.65-2.59,2.75-1.16.07-2.33.01-3.49.01h-91.81Zm4.01-4h83.78c1.16,0,2.33-.04,3.49.01,1.61.08,2.52-.86,2.59-2.25.15-3.15.15-6.33,0-9.48-.06-1.37-.93-2.35-2.55-2.29-1.16.04-2.33,0-3.49,0h-83.82v14Z"/>
    <path class="cls-1" d="m142,91.5c0,.5,0,1,0,1.5-.03,1.82.08,3.11,2.3,4.15,3.23,1.51,3.55,5.41,1.33,8.75-1.55-1.14-3.07-2.24-2.59-4.9-1.44,0-2.74-.14-4,.03-2,.28-2.87,2.59-1.42,4.01,1.22,1.19,2.69,2.34,4.27,2.89,3.91,1.37,5.41,4.03,5.11,7.98-.09,1.16-.01,2.33-.01,3.75-1.46,1.23-3.04,2.57-5,4.23v3.77c-3.39.15-3.74.03-3.93-2.58-.1-1.3-.57-2.09-1.39-2.96-1.09-1.15-2.29-2.1-2.94-3.77-1.25-3.23-.91-3.96,2.95-4.22.81.98-.15,2.46,1.31,3.51,1.93,1.39,2.97,1.9,4.18.68,1.21-1.21,1.22-3.45-.14-4.74-.78-.74-1.83-1.18-2.74-1.8-1.17-.8-2.37-1.58-3.47-2.48-4.32-3.52-3.92-10.23,2.05-12.7q.2-5.72,4.12-5.12Z"/>
    <path class="cls-1" d="m147,166.3c-1.25,1.3-2.36,2.54-3.57,3.68-.28.26-.88.19-1.49.29v5.02c-1.29-.43-2.37-.59-3.21-1.11-1.41-.89-.36-2.46-.95-3.87-1.13-1.6-3.18-2.71-4.09-5.01-1.24-3.16-.81-3.95,3.08-4.08.28,1.37.34,2.75,1.65,3.82,1.17.96,2.15,1.43,3.45.58,1.12-.73,1.7-3.33.78-4.36-.82-.92-2-1.52-3.04-2.24-1.16-.81-2.41-1.5-3.49-2.4-5.04-4.18-3.86-10.66,1.82-13.05q.1-5.22,4.05-5.35c0,.8.05,1.6-.01,2.39-.13,1.61.44,2.59,1.94,3.47,3.53,2.09,4.07,5.48,1.7,8.82-1.75-1.02-2.96-2.36-2.64-4.88-1.29,0-2.45-.18-3.52.06-.86.2-1.97.72-2.33,1.43-.5.99-.31,2.26.86,3.01,1.31.84,2.54,1.93,3.98,2.45,3.86,1.41,5.41,4.07,5.04,8.05-.11,1.16-.02,2.33-.02,3.29Z"/>
    <path class="cls-1" d="m94,121c-4.67,0-9.33,0-14,0-3.99,0-4.92-.45-5-2.37-.09-2.1.94-2.62,5.25-2.62,8.33,0,16.66,0,25,0,2,0,4-.05,6,.02,1.88.07,2.82,1.03,2.75,2.61-.06,1.45-1.13,2.35-3,2.36-5.67.03-11.33.01-17,.01Z"/>
    <path class="cls-1" d="m94.25,168h-15c-.83,0-1.76.23-2.48-.05-1.05-.41-1.91-1.15-1.8-2.57.1-1.36.84-2.05,2.04-2.35.47-.12,1-.02,1.49-.02h31.99c.5,0,1.03-.1,1.49.02,1.19.3,1.93.99,2.03,2.36.1,1.42-.75,2.16-1.8,2.57-.72.28-1.65.05-2.48.05h-15.5Z"/>
    <path class="cls-1" d="m103.09,110.26c-1.85.86-2.8,1.67-3.75,1.69-7.15.11-14.31.08-21.46.04-1.91-.01-2.87-.94-2.87-2.48,0-1.55.96-2.47,2.87-2.49,6.66-.04,13.31.07,19.97-.07,2.26-.05,2.95,1.66,5.25,3.31Z"/>
    <path class="cls-1" d="m102.12,156.64c-.52,1.76-1.4,2.4-2.95,2.39-7.15-.05-14.31,0-21.46-.04-1.84-.01-2.88-1.08-2.68-2.64.18-1.4.91-2.35,2.51-2.34,6.99.02,13.98,0,20.96,0,2.01,0,2.45,1.83,3.62,2.64Z"/>
    <path class="cls-1" d="m75.11,103v-3.75c4.53-1.97,9.1-1.79,13.69-.11-.12,3.36-.41,3.81-2.82,3.85-3.59.05-7.17.01-10.87.01Z"/>
    <path class="cls-1" d="m75.08,150v-3.61c3.62-2.34,7.59-1.21,11.38-1.32,1.55-.04,2.74,1.62,2.54,2.71-.32,1.76-1.42,2.37-3.11,2.23-.65-.06-1.32,0-1.98,0h-8.83Z"/>
    <path class="cls-2" d="m79.09,76v-14h83.82c1.16,0,2.33.04,3.49,0,1.62-.06,2.48.92,2.55,2.29.15,3.15.15,6.33,0,9.48-.07,1.39-.98,2.33-2.59,2.25-1.16-.05-2.33-.01-3.49-.01h-83.78Z"/>
  </g>
</svg>