<?xml version="1.0" encoding="UTF-8"?>
<svg id="Layer_2" data-name="Layer 2" xmlns="http://www.w3.org/2000/svg" viewBox="0 0 135 122">
  <defs>
    <style>
      .cls-1 {
        fill: #f05a29;
      }

      .cls-2 {
        fill: #f15a29;
      }

      .cls-3 {
        fill: #3e4043;
      }

      .cls-4 {
        fill: none;
      }

      .cls-5 {
        fill: #293c46;
      }

      .cls-6 {
        fill: #e6582b;
      }

      .cls-7 {
        fill: #333e44;
      }
    </style>
  </defs>
  <g id="Layer_1-2" data-name="Layer 1">
    <path class="cls-5" d="m135,122H0V0h135v122Zm-98.77-11.99c.25.36.5.72.75,1.07,2.08.99,4.15,2.78,6.25,2.83,11.49.28,22.98.13,34.48.14,14.83,0,18.55,2.98,18.24-18.17-.33-23.48-.06-46.97-.09-70.46,0-7.53-2.82-11.19-9.39-11.29-13.99-.22-27.99-.28-41.97.03-5.51.12-8.85,2.52-8.7,8.91.29,13.15.04,26.32.1,39.48.07,15.82.22,31.64.33,47.46Z"/>
    <path class="cls-2" d="m36.23,110.01c-.12-15.82-.27-31.64-.33-47.46-.06-13.16.2-26.32-.1-39.48-.14-6.38,3.2-8.78,8.7-8.91,13.99-.31,27.98-.25,41.97-.03,6.57.1,9.38,3.75,9.39,11.29.03,23.49-.25,46.98.09,70.46.3,21.15-3.42,18.18-18.24,18.17-11.49,0-22.99.14-34.48-.14-2.11-.05-4.17-1.84-6.25-2.83-.25-.36-.5-.72-.75-1.07Zm5.75-1.18c14.98.08,29.95.08,44.93.27,4.11.05,3.98-2.54,3.98-5.32,0-26.3-.05-52.6.05-78.9.02-4.29-1.66-5.92-5.93-5.87-12.98.15-25.97.18-38.95-.02-3.92-.06-5.28,1.23-5.23,5.15.17,13.15.02,26.3.07,39.45.06,14.81.2,29.61.3,44.42.26.27.53.54.79.82Z"/>
    <path class="cls-6" d="m36.23,110.01c.25.36.5.72.75,1.07-.25-.36-.5-.72-.75-1.07Z"/>
    <path class="cls-4" d="m41.19,108.01c-.1-14.81-.24-29.61-.3-44.42-.05-13.15.09-26.3-.07-39.45-.05-3.92,1.31-5.21,5.23-5.15,12.98.2,25.97.17,38.95.02,4.27-.05,5.95,1.58,5.93,5.87-.1,26.3-.05,52.6-.05,78.9,0,2.77.14,5.37-3.98,5.32-14.98-.19-29.95-.19-44.93-.27-.26-.27-.53-.54-.79-.82Zm5.79-14.19c8.81.08,17.63.2,26.44.23q12.46.04,12.46-12.26c0-17.31-.02-34.61.02-51.92,0-3.13-.47-5.78-4.4-5.79-10.65-.03-21.3-.13-31.95.14-1.24.03-3.48,2.22-3.49,3.41-.12,21.79.04,43.58.13,65.37.26.27.52.54.78.81Zm14.44,6.4c-1.08,3.91.72,4.98,4.05,4.78,3.48-.21,4.26-1.1,3.86-4.78h-7.91Z"/>
    <path class="cls-7" d="m41.19,108.01c.26.27.53.54.79.82-.26-.27-.53-.54-.79-.82Z"/>
    <path class="cls-1" d="m46.19,93.01c-.1-21.79-.25-43.58-.13-65.37,0-1.2,2.25-3.38,3.49-3.41,10.64-.27,21.3-.17,31.95-.14,3.93.01,4.4,2.65,4.4,5.79-.04,17.31-.02,34.61-.02,51.92q0,12.27-12.46,12.26c-8.81-.03-17.63-.15-26.44-.23-.26-.27-.52-.54-.78-.81Zm4.91-63.02c0,19.34-.01,38.68-.02,58.01.3.29.6.58.9.87h28.43V29.22h-28.41c-.3.26-.6.51-.9.77Z"/>
    <path class="cls-1" d="m61.41,100.22h7.91c.39,3.67-.38,4.57-3.86,4.78-3.33.2-5.14-.87-4.05-4.78Z"/>
    <path class="cls-6" d="m46.19,93.01c.26.27.52.54.78.81-.26-.27-.52-.54-.78-.81Z"/>
    <path class="cls-4" d="m51.09,88.01c0-19.34.01-38.68.02-58.01.3-.26.6-.51.9-.77h28.41v59.65h-28.43c-.3-.29-.6-.58-.9-.87Z"/>
    <path class="cls-3" d="m52,29.22c-.3.26-.6.51-.9.77.3-.26.6-.51.9-.77Z"/>
    <path class="cls-7" d="m51.09,88.01c.3.29.6.58.9.87-.3-.29-.6-.58-.9-.87Z"/>
  </g>
</svg>