<?xml version="1.0" encoding="UTF-8"?>
<svg id="Layer_2" data-name="Layer 2" xmlns="http://www.w3.org/2000/svg" viewBox="0 0 230 230">
  <defs>
    <style>
      .cls-1 {
        fill: #f15a29;
      }

      .cls-2 {
        fill: none;
      }
    </style>
  </defs>
  <g id="Layer_1-2" data-name="Layer 1">
    <g>
      <path class="cls-2" d="m0,230V0h230v230H0Zm152.02-83.3c.25-.4.51-.8.76-1.2,1.81,0,3.61,0,5.42,0,10,0,20.01-.1,30,.05,3.34.05,4.88-.83,4.69-4.49-.26-5.15,0-10.33-.09-15.49-.11-7.13-2.96-13.05-8.89-16.99-2.67-1.77-3.25-3.73-3.23-6.6.11-11.33.16-22.66.01-33.99-.2-15.59-12.09-27.56-27.88-28.31-14.59-.69-27.33,10.94-28.75,26.23-.15,1.63-.39,3.25-.6,5.01h-10.16c-.17-.95-.39-1.58-.38-2.22.09-7.36,1.4-15.2-7.76-18.73-.27-.1-.42-.51-.63-.76-6.91-8.17-15.83-10.77-26.05-8.82-18.17,3.47-26.03,26.04-14.2,40.25.71.86,1.13,1.98,1.62,3,1.98,4.11,3.66,8.38,5.96,12.29,2.24,3.79,1.45,6.57-2.81,7.47-1.62.34-3.25.67-4.9.88-12.66,1.64-19.94,9.76-20.07,22.52-.05,4.5.24,9.02-.08,13.49-.31,4.33,1.52,5.36,5.52,5.27,10-.23,20-.09,30-.06,1.57,0,3.13.17,5.8.33-1.47,1.23-2.01,1.77-2.63,2.19-6.56,4.5-9.78,10.66-9.62,18.65.11,5.66.22,11.34-.05,16.99-.18,3.93,1.16,5.08,5.12,5.05,27-.17,54.01-.08,81.01-.1,1.43,0,2.86-.23,4.64-.38,0-5.42-.26-10.41.05-15.37.67-10.75-1.26-20.27-11.85-26.17Z"/>
      <path class="cls-1" d="m152.02,146.7c10.59,5.91,12.52,15.42,11.85,26.17-.31,4.96-.05,9.96-.05,15.37-1.78.15-3.21.38-4.64.38-27.01.02-54.01-.06-81.01.1-3.96.02-5.3-1.12-5.12-5.05.27-5.65.16-11.33.05-16.99-.16-7.99,3.06-14.16,9.62-18.65.62-.43,1.16-.96,2.63-2.19-2.66-.16-4.23-.32-5.8-.33-10-.02-20.01-.16-30,.06-4,.09-5.83-.94-5.52-5.27.32-4.48.03-8.99.08-13.49.14-12.76,7.41-20.88,20.07-22.52,1.64-.21,3.27-.54,4.9-.88,4.25-.9,5.04-3.68,2.81-7.47-2.31-3.91-3.99-8.19-5.96-12.29-.49-1.03-.91-2.15-1.62-3-11.83-14.21-3.97-36.78,14.2-40.25,10.22-1.95,19.14.65,26.05,8.82.22.25.36.66.63.76,9.17,3.53,7.86,11.38,7.76,18.73,0,.63.21,1.27.38,2.22h10.16c.21-1.76.45-3.38.6-5.01,1.41-15.29,14.15-26.93,28.75-26.23,15.79.75,27.68,12.72,27.88,28.31.14,11.33.09,22.66-.01,33.99-.03,2.87.56,4.83,3.23,6.6,5.94,3.94,8.78,9.85,8.89,16.99.08,5.16-.18,10.34.09,15.49.19,3.66-1.35,4.54-4.69,4.49-10-.15-20-.05-30-.05-1.81,0-3.61,0-5.42,0-.25.4-.51.8-.76,1.2Zm18.8-78.44c-.3,10.19,2.21,19.99-5.83,28.01-2.99,2.98-1.35,6.33,2.97,7.18,2.72.54,5.49.84,8.15,1.24.43-.88.83-1.31.83-1.75,0-12.65.76-25.36-.29-37.93-1.15-13.69-13.27-22.52-27.15-21.38-12.4,1.02-22.18,12.51-21.96,25.43.07,4.02,1.98,5.06,5.49,5.1.33-2.07.6-3.8.93-5.89,12.17,3.96,24.09,3.98,36.85-.02Zm-31.09,46.58c7.26-6.62,5.77-14.77,5.56-22.63-.02-.76-1.08-1.56-1.77-2.22-1.49-1.41-3.33-2.53-4.54-4.14-6.66-8.86-15.39-12.57-26.2-10.1-9.96,2.28-16.3,8.82-18.56,18.76-1.11,4.89-1.31,10.02,2.46,15.51.42-3.16.69-5.21,1.01-7.68,13.89,3.9,27.61,3.94,42.03-.18v12.68Zm-35.54-39.05c2.2-2.22,4.42-3.39,4.6-4.83.55-4.24.38-8.59.25-12.89-.02-.74-1.09-1.56-1.83-2.16-1.83-1.49-4.04-2.6-5.57-4.34-6.73-7.64-16.93-10.11-26.21-6.08-8.89,3.87-14.44,13.21-13.35,22.94.24,2.16,1.3,4.23,1.99,6.34.42-.13.85-.26,1.27-.39.39-1.87.79-3.75,1.24-5.91,12.08,3.81,23.98,3.68,35.92,0,.5,2.21.9,3.93,1.68,7.33Zm56.1,97.6c0-2.33.06-4.66-.01-6.99-.28-9.23-5.69-15.53-14.57-17.81-3.53-.91-5.21.18-7.34,2.91-3.1,3.96-3.73,10.48-10.72,10.97-.87.06-1.83,3.24-2.18,5.09-.3,1.57.13,3.31.38,4.95,2.23,14.57-1.55,12.23,13.78,12.65,4.39.12,6.47-1,6.06-5.84-.18-2.12,1.06-4.35,1.65-6.53.62,2.16,1.78,4.32,1.75,6.47-.05,4.11,1.03,6.01,5.63,5.97,4.41-.04,6.11-1.5,5.63-5.83-.22-1.97-.04-3.99-.05-5.99Zm-83.55-.77s-.03,0-.05,0c0,3-.15,6,.08,8.98.09,1.1.83,2.67,1.71,3.09,5.1,2.42,8.91-.15,8.94-5.81,0-1-.21-2.06.06-2.98.32-1.11,1.05-2.1,1.6-3.14.63.96,1.7,1.87,1.82,2.88,1.1,9.43,1.05,9.44,10.52,9.43,1.5,0,3.18.41,4.45-.14,1.55-.66,3.68-1.95,3.94-3.28.91-4.72,1.48-9.57,1.43-14.36-.02-1.85-1.8-3.91-3.25-5.43-1.37-1.44-3.73-1.97-5-3.46-2.14-2.51-3.68-5.54-5.67-8.2-.71-.96-1.95-2.08-3.01-2.14-8.28-.47-16.87,7.43-17.53,16.06-.22,2.81-.03,5.66-.03,8.49Zm63.16-47.64c-2.95,4.08-5.07,6.47-6.51,9.21-.84,1.6-1.07,3.89-.63,5.62.2.8,2.68,1.41,4.14,1.43,9.33.13,18.66.07,27.99.07,3.09,0,6.18,0,9.23,0,.22-1.46.22-2.15.44-2.75.51-1.4,1.14-2.76,1.71-4.13.67,1.3,1.15,2.76,2.06,3.86.97,1.18,2.26,2.76,3.54,2.9,7.2.77,7.43.45,7.45-6.51,0-2.83.04-5.66-.02-8.49-.12-5.84-2.24-10.9-7.1-14.16-2.74-1.83-6.2-2.59-9.25-3.79-.29,4.38.69,8.42-.9,10.24-6.07,6.98-12.95,13.25-20.64,20.88-3.88-4.84-7.5-9.37-11.5-14.37Zm-38.85-16.29c-.63,9.19-1.79,18.81,7.98,25.08,5.89,3.78,14.1,3.44,19.74-.66,6.67-4.85,9.24-14.64,6.48-25.15-5.54.24-11.13.59-16.73.71-5.61.12-11.22.03-17.49.03Zm-42.97,31.82c.11-1.28.05-2.78.42-4.17.2-.74,1.14-1.29,1.75-1.92.52.54,1.55,1.12,1.5,1.6-.6,6.27,3.74,5.53,7.52,5.24,2.16-.17,5.95-.58,6.13-1.45,1.05-5.32,1.38-10.8,1.68-16.24.05-.87-1.39-2.66-2-2.6-4.7.46-5.57-3.41-7.31-6.18-4.55-7.25-8.03-8-14.2-1.87-2.57,2.55-4.49,6.23-5.52,9.74-.95,3.24-.38,6.94-.39,10.43-.03,9.01.16,9.15,9.26,8.02.3-.04.58-.29,1.17-.6Zm11.42-66.19c.2,3.98-.17,8.35.77,12.41,1.58,6.77,8.98,11.54,15.62,10.38,1.7-.3,3.6-1.95,4.57-3.51,2.77-4.46,5.19-9.15,7.55-13.85.84-1.68,1.1-3.65,1.61-5.43h-30.12Zm97.15-.51c-9.15,0-18.03-.03-26.92.05-.81,0-2.22.65-2.29,1.14-.18,1.21-.16,2.88.55,3.71,2.42,2.84,5.29,5.31,7.76,8.12,1.35,1.54,2.75,3.37,3.2,5.28,1.28,5.47,2.28,6.23,7.58,4.51,8.85-2.87,12.47-10.78,10.11-22.82Zm-52.68,110.57c9.2,1.82,9.58,1.19,8.79-7.72-.51-5.72-3.54-11.87,1.72-16.93-5.19-5.31-6.9-5.32-12.09-.14,6.05,7.76-.21,16.36,1.58,24.79Zm-24.99-43.37c1.4-7.95-4.31-15.61,1.39-22.53-5.22-5.12-7.27-5.07-11.84.29,6.16,6.8-.41,14.81,1.72,22.24h8.74Zm72.32-40.97c-4.22.41-6.54.47-8.78.92-1.11.23-2.71.97-3,1.85-2.62,7.82-2.09,15.35,3.26,23.57,2.95-9.12,5.57-17.22,8.52-26.34Zm-56.33,40.61c-.82-2.73-1.3-5.19-2.29-7.43-1.39-3.13-3.08-6.14-4.82-9.1-.77-1.3-1.98-2.33-2.99-3.49-1.11,1.47-2.94,2.85-3.17,4.44-.35,2.54.26,5.25.66,7.85,1.44,9.3,1.47,9.29,12.61,7.72Zm3.38-1.06c-.52,5.13,4.93,6.14,7.76,8.92.8.79,3.66.79,4.49.01,2.89-2.73,8.35-3.74,7.68-8.93h-19.93Zm48.04-12.43l1.78,1.18c3.4-3.72,7.47-7.07,9.94-11.33,1.26-2.18-.31-6.03-.9-9.07-.03-.16-4.01-.21-4.26.42-2.42,6.18-4.43,12.51-6.56,18.8Zm-19.93,20.5c-5.19-3.11-8.88-1.59-13.82,5.55,2.38,1.36,4.73,2.7,7.42,4.23,2.31-3.53,4.35-6.65,6.4-9.78Zm-22.49,4.85c-6.13-7.05-8.31-7.91-13.27-5.23,6.21,12.43,6.16,11.21,13.27,5.23Zm-36.62-52.18c-.32,3.24,4.91,9.36,7.49,8.34,2.12-.84,4.7-3.04,5.14-5.06.8-3.65-2.58-2.73-4.79-2.81-2.62-.09-5.23-.31-7.84-.48Zm2.88,11.53c-5.37-6.05-7.64-6.54-11.7-2.58,1.51,2.22,3.04,4.47,4.76,7.01,2.56-1.64,4.72-3.02,6.94-4.43Zm66.8,15.95c.36-.3.73-.6,1.09-.9-1.07-2.91-2.13-5.81-3.52-9.61-1.66,2.05-2.61,3.22-3.77,4.65,2.28,2.15,4.24,4.01,6.2,5.86Z"/>
      <path class="cls-2" d="m170.82,68.26c-12.77,4-24.68,3.98-36.85.02-.33,2.08-.6,3.82-.93,5.89-3.5-.04-5.42-1.08-5.49-5.1-.22-12.92,9.56-24.41,21.96-25.43,13.89-1.14,26.01,7.69,27.15,21.38,1.05,12.56.29,25.28.29,37.93,0,.44-.4.87-.83,1.75-2.66-.4-5.43-.71-8.15-1.24-4.33-.85-5.96-4.2-2.97-7.18,8.03-8.02,5.53-17.83,5.83-28.01Z"/>
      <path class="cls-2" d="m139.72,114.84v-12.68c-14.42,4.12-28.14,4.08-42.03.18-.33,2.47-.6,4.52-1.01,7.68-3.78-5.49-3.57-10.62-2.46-15.51,2.26-9.95,8.6-16.48,18.56-18.76,10.81-2.48,19.54,1.24,26.2,10.1,1.21,1.61,3.05,2.73,4.54,4.14.69.66,1.75,1.46,1.77,2.22.21,7.86,1.7,16.01-5.56,22.63Z"/>
      <path class="cls-2" d="m104.19,75.79c-.78-3.4-1.17-5.12-1.68-7.33-11.94,3.69-23.84,3.82-35.92,0-.45,2.16-.84,4.03-1.24,5.91-.42.13-.85.26-1.27.39-.68-2.11-1.75-4.18-1.99-6.34-1.08-9.73,4.46-19.08,13.35-22.94,9.27-4.03,19.48-1.57,26.21,6.08,1.53,1.73,3.74,2.85,5.57,4.34.74.6,1.81,1.42,1.83,2.16.12,4.3.29,8.65-.25,12.89-.19,1.44-2.4,2.62-4.6,4.83Z"/>
      <path class="cls-2" d="m160.3,173.39c0,2-.18,4.02.04,5.99.49,4.34-1.22,5.8-5.63,5.83-4.6.04-5.68-1.86-5.63-5.97.03-2.15-1.13-4.31-1.75-6.47-.59,2.18-1.83,4.42-1.65,6.53.41,4.83-1.67,5.95-6.06,5.84-15.33-.41-11.55,1.92-13.78-12.65-.25-1.64-.68-3.38-.38-4.95.35-1.84,1.31-5.03,2.18-5.09,7-.49,7.62-7.01,10.72-10.97,2.14-2.73,3.82-3.81,7.34-2.91,8.89,2.28,14.3,8.58,14.57,17.81.07,2.33.01,4.66.02,6.99Z"/>
      <path class="cls-2" d="m76.74,172.62c0-2.83-.18-5.67.03-8.49.67-8.64,9.25-16.53,17.53-16.06,1.06.06,2.29,1.18,3.01,2.14,1.99,2.66,3.52,5.69,5.67,8.2,1.27,1.49,3.62,2.03,5,3.46,1.45,1.52,3.23,3.59,3.25,5.43.05,4.79-.52,9.64-1.43,14.36-.26,1.33-2.39,2.62-3.94,3.28-1.27.54-2.95.14-4.45.14-9.47,0-9.42,0-10.52-9.43-.12-1.02-1.19-1.93-1.82-2.88-.55,1.04-1.27,2.03-1.6,3.14-.27.92-.06,1.98-.06,2.98-.03,5.66-3.84,8.23-8.94,5.81-.89-.42-1.63-2-1.71-3.09-.23-2.98-.08-5.99-.08-8.98.02,0,.03,0,.05,0Z"/>
      <path class="cls-2" d="m139.9,124.98c4.01,5,7.63,9.53,11.5,14.37,7.69-7.63,14.57-13.9,20.64-20.88,1.58-1.82.61-5.86.9-10.24,3.05,1.2,6.52,1.95,9.25,3.79,4.86,3.26,6.99,8.32,7.1,14.16.06,2.83.02,5.66.02,8.49-.02,6.96-.24,7.28-7.45,6.51-1.28-.14-2.58-1.72-3.54-2.9-.91-1.11-1.39-2.56-2.06-3.86-.58,1.37-1.2,2.73-1.71,4.13-.22.61-.22,1.3-.44,2.75-3.05,0-6.14,0-9.23,0-9.33,0-18.66.06-27.99-.07-1.46-.02-3.94-.63-4.14-1.43-.44-1.74-.21-4.02.63-5.62,1.44-2.74,3.56-5.13,6.51-9.21Z"/>
      <path class="cls-2" d="m101.06,108.69c6.27,0,11.88.1,17.49-.03,5.6-.12,11.19-.47,16.73-.71,2.75,10.51.18,20.3-6.48,25.15-5.65,4.11-13.85,4.44-19.74.66-9.77-6.27-8.62-15.89-7.98-25.08Z"/>
      <path class="cls-2" d="m58.09,140.51c-.59.31-.87.56-1.17.6-9.1,1.13-9.29.99-9.26-8.02.01-3.5-.56-7.2.39-10.43,1.04-3.51,2.95-7.19,5.52-9.74,6.17-6.13,9.66-5.38,14.2,1.87,1.74,2.77,2.61,6.64,7.31,6.18.61-.06,2.05,1.73,2,2.6-.29,5.44-.62,10.92-1.68,16.24-.17.87-3.97,1.28-6.13,1.45-3.78.29-8.12,1.03-7.52-5.24.05-.48-.97-1.06-1.5-1.6-.61.63-1.55,1.18-1.75,1.92-.37,1.39-.32,2.9-.42,4.17Z"/>
      <path class="cls-2" d="m69.51,74.32h30.12c-.51,1.78-.77,3.75-1.61,5.43-2.36,4.7-4.78,9.39-7.55,13.85-.96,1.56-2.87,3.21-4.57,3.51-6.64,1.16-14.04-3.61-15.62-10.38-.95-4.06-.57-8.43-.77-12.41Z"/>
      <path class="cls-2" d="m166.66,73.81c2.36,12.04-1.26,19.95-10.11,22.82-5.31,1.72-6.3.96-7.58-4.51-.45-1.92-1.86-3.75-3.2-5.28-2.46-2.81-5.33-5.28-7.76-8.12-.71-.83-.72-2.5-.55-3.71.07-.5,1.48-1.14,2.29-1.14,8.88-.08,17.77-.05,26.92-.05Z"/>
      <path class="cls-2" d="m113.98,184.39c-1.79-8.43,4.46-17.03-1.58-24.79,5.19-5.18,6.9-5.17,12.09.14-5.27,5.06-2.23,11.22-1.72,16.93.79,8.91.41,9.54-8.79,7.72Z"/>
      <path class="cls-2" d="m89,141.01h-8.74c-2.12-7.43,4.45-15.44-1.72-22.24,4.57-5.36,6.62-5.41,11.84-.29-5.7,6.92,0,14.58-1.39,22.53Z"/>
      <path class="cls-2" d="m161.31,100.04c-2.95,9.13-5.57,17.22-8.52,26.34-5.35-8.22-5.89-15.75-3.26-23.57.29-.87,1.89-1.62,3-1.85,2.24-.46,4.56-.51,8.78-.92Z"/>
      <path class="cls-2" d="m104.99,140.65c-11.13,1.57-11.17,1.58-12.61-7.72-.4-2.6-1.01-5.31-.66-7.85.22-1.6,2.06-2.97,3.17-4.44,1.01,1.16,2.23,2.19,2.99,3.49,1.74,2.95,3.43,5.97,4.82,9.1.99,2.23,1.47,4.69,2.29,7.43Z"/>
      <path class="cls-2" d="m108.37,139.59h19.93c.67,5.19-4.79,6.2-7.68,8.93-.83.78-3.69.78-4.49-.01-2.83-2.78-8.28-3.78-7.76-8.92Z"/>
      <path class="cls-2" d="m156.41,127.17c2.13-6.29,4.14-12.62,6.56-18.8.25-.64,4.23-.59,4.26-.42.59,3.04,2.15,6.89.9,9.07-2.46,4.27-6.53,7.61-9.94,11.33l-1.78-1.18Z"/>
      <path class="cls-2" d="m136.48,147.67c-2.05,3.13-4.1,6.25-6.4,9.78-2.69-1.53-5.03-2.87-7.42-4.23,4.94-7.14,8.63-8.66,13.82-5.55Z"/>
      <path class="cls-2" d="m114,152.52c-7.11,5.98-7.06,7.2-13.27-5.23,4.96-2.67,7.14-1.81,13.27,5.23Z"/>
      <path class="cls-2" d="m77.37,100.34c2.61.16,5.22.38,7.84.48,2.21.08,5.59-.84,4.79,2.81-.44,2.02-3.02,4.22-5.14,5.06-2.58,1.02-7.8-5.1-7.49-8.34Z"/>
      <path class="cls-2" d="m80.25,111.87c-2.22,1.42-4.38,2.8-6.94,4.43-1.72-2.54-3.25-4.79-4.76-7.01,4.06-3.96,6.33-3.47,11.7,2.58Z"/>
      <path class="cls-2" d="m147.05,127.82c-1.96-1.86-3.92-3.71-6.2-5.86,1.16-1.43,2.11-2.59,3.77-4.65,1.39,3.79,2.46,6.7,3.52,9.61-.36.3-.73.6-1.09.9Z"/>
    </g>
  </g>
</svg>