<?xml version="1.0" encoding="UTF-8"?>
<svg id="Layer_2" data-name="Layer 2" xmlns="http://www.w3.org/2000/svg" viewBox="0 0 200 200">
  <defs>
    <style>
      .cls-1 {
        fill: #fff;
      }

      .cls-2 {
        fill: #f15a29;
      }

      .cls-3 {
        fill: none;
      }
    </style>
  </defs>
  <g id="Layer_1-2" data-name="Layer 1">
    <path class="cls-3" d="m200,200H0V0h200v200Zm-67.62-114.11c-7.69,0-14.79-.08-21.88.02-6.91.1-10.14,3.03-10.55,9.91-.22,3.59-1.66,5.2-5.13,6.2-2.32.66-5.16,2.45-6.08,4.5-2.08,4.67-3.2,9.78-4.52,14.77-.23.88.45,2.01,1.1,4.51,5.49-6,4.28-13.59,8.58-19.08,6.99-.87,10.9-4.73,10.8-12.58-.02-1.27,3.39-3.5,5.38-3.7,5.28-.53,10.65-.34,15.97-.16,4.69.16,9.05-.16,10.84-3.34,6.26-2.28,11.04-4.41,16.03-5.72,4.29-1.13,8.08-2.24,8.58-6.97,2.09-1.21,3.79-2.2,6.58-3.82-3.04-1.22-4.78-1.92-6.53-2.63-.98-2.56-2.16-5.46-4.2-6.33-6.29-2.65-12.9-4.52-19.39-6.69-2.91-1.72-6-3.79-9.13-3.83-22.32-.28-44.64-.2-66.96-.12-7.81.03-12.46,4.5-12.85,12.3-.24,4.82-.17,9.66-.05,14.49.18,7.32,3.72,11.28,10.97,12.59,5.65,1.02,7.46,3.95,5.88,9.64-1.79,6.42-3.67,12.81-5.41,19.23-.41,1.49-.43,3.09-.63,4.63.57.31,1.15.63,1.72.94,1.04-1.38,2.55-2.6,3.05-4.16,2.03-6.34,3.77-12.78,5.57-19.19,2.39-8.49-.62-13.78-9.24-15.28-5.09-.88-7.22-3.78-7.46-8.45-.22-4.32-.27-8.66-.08-12.98.31-7.04,2.88-9.45,9.99-9.46,21.15-.04,42.31-.03,63.46.01,1.75,0,3.49.43,5.59.7v30.03Zm-56.52,68.39c4.66,0,9.33-.01,13.99,0,16.51.05,15.5,1.27,15.38-15.91-.05-7.27-3.44-10.55-10.84-10.58-10.49-.05-21,.36-31.47-.11-14.4-.65-17.2,3.15-16.85,17.13.02.67,0,1.33.04,2,.38,5.58,2.19,7.39,7.77,7.45,7.33.07,14.66.02,21.98.02Zm-7.85-91.53c-5.44-3.44-9.28-1.94-9.83,3.32-.33,3.13-.16,6.32-.12,9.48.06,4.26,2.36,6.44,6.55,6.52,5.16.09,10.32,0,15.47.07,12.87.18,14.42.99,13.79-15.36-.15-3.96-1.97-6.18-6.21-6.06-3.99.11-7.99-.07-11.98.06-1.45.05-2.89.62-4.34.96.01.65.03,1.3.04,1.95,5.68.37,11.36.73,17.08,1.1v12.52h-25.07v-11.88c1.59-.92,2.83-1.64,4.61-2.67Zm56.72.73c-3.89-3.9-17.53-3.63-19.96.11,3.66,2.31,15.8,2.37,19.96-.11Zm-.29,6.89c-4.17-2.68-16.91-2.34-19.65.52,4.1,3.36,17.01,3.02,19.65-.52Zm-20,7.89c4.9,3.24,17.76,2.62,19.86-.73-4.15-2.76-16.61-2.47-19.86.73Z"/>
    <path class="cls-2" d="m75.86,154.27c-7.33,0-14.66.05-21.98-.02-5.57-.05-7.39-1.86-7.77-7.45-.05-.66-.03-1.33-.04-2-.35-13.98,2.44-17.78,16.85-17.13,10.47.47,20.98.06,31.47.11,7.4.04,10.79,3.31,10.84,10.58.12,17.19,1.13,15.96-15.38,15.91-4.66-.01-9.33,0-13.99,0Zm25.02-4c0-4.54.06-8.47-.02-12.4-.07-3.82-2.03-5.83-5.93-5.83-12.67,0-25.33-.11-37.99.14-1.78.04-4.82,1.65-5.05,2.93-.81,4.64-.68,9.45-.9,14.19.46,0,.93,0,1.39.01.47-2.53.93-5.06,1.44-7.82h20.57c.51,3.24.91,5.81,1.37,8.78h25.12Zm-30.62.05v-4.81h-12.42v4.81h12.42Z"/>
    <path class="cls-1" d="m143.36,81.24h-5.75v-20.65h5.75v20.65Z"/>
    <path class="cls-1" d="m148.66,63.88c2.38.47,4.53.9,6.98,1.39v10.6c-2.31.55-4.33,1.03-6.98,1.66v-13.65Z"/>
    <g>
      <path class="cls-2" d="m132.38,85.89v-30.03c-2.1-.27-3.85-.7-5.59-.7-21.15-.05-42.31-.06-63.46-.01-7.11.01-9.68,2.42-9.99,9.46-.19,4.32-.15,8.67.08,12.98.24,4.66,2.37,7.56,7.46,8.45,8.62,1.5,11.63,6.79,9.24,15.28-1.8,6.41-3.54,12.85-5.57,19.19-.5,1.55-2.01,2.78-3.05,4.16-.57-.31-1.15-.63-1.72-.94.2-1.55.22-3.14.63-4.63,1.75-6.43,3.63-12.82,5.41-19.23,1.58-5.69-.23-8.62-5.88-9.64-7.26-1.31-10.79-5.27-10.97-12.59-.12-4.83-.2-9.67.05-14.49.39-7.8,5.04-12.27,12.85-12.3,22.32-.08,44.64-.16,66.96.12,3.12.04,6.22,2.11,9.13,3.83,6.49,2.17,13.1,4.04,19.39,6.69,2.04.86,3.22,3.77,4.2,6.33,1.74.7,3.49,1.4,6.53,2.63-2.79,1.62-4.5,2.61-6.58,3.82-.5,4.73-4.29,5.84-8.58,6.97-4.99,1.31-9.77,3.44-16.03,5.72-1.79,3.19-6.15,3.5-10.84,3.34-5.32-.18-10.69-.37-15.97.16-1.98.2-5.39,2.43-5.38,3.7.1,7.84-3.81,11.7-10.8,12.58-4.3,5.49-3.09,13.09-8.58,19.08-.64-2.49-1.33-3.62-1.1-4.51,1.32-4.98,2.44-10.1,4.52-14.77.91-2.04,3.76-3.83,6.08-4.5,3.47-.99,4.92-2.6,5.13-6.2.41-6.88,3.64-9.81,10.55-9.91,7.09-.1,14.19-.02,21.88-.02Zm10.98-4.65v-20.65h-5.75v20.65h5.75Zm5.3-17.36v13.65c2.65-.63,4.66-1.11,6.98-1.66v-10.6c-2.44-.49-4.59-.91-6.98-1.39Z"/>
      <path class="cls-2" d="m68,62.75c-1.79,1.04-3.02,1.75-4.61,2.67v11.88h25.07v-12.52c-5.72-.37-11.4-.73-17.08-1.1-.01-.65-.03-1.3-.04-1.95,1.44-.33,2.88-.91,4.34-.96,3.99-.13,7.99.04,11.98-.06,4.25-.12,6.06,2.1,6.21,6.06.63,16.34-.92,15.53-13.79,15.36-5.16-.07-10.32.03-15.47-.07-4.19-.08-6.49-2.26-6.55-6.52-.04-3.16-.21-6.35.12-9.48.55-5.27,4.39-6.76,9.83-3.32Z"/>
      <path class="cls-2" d="m124.72,63.48c-4.16,2.48-16.3,2.42-19.96.11,2.43-3.74,16.07-4.01,19.96-.11Z"/>
      <path class="cls-2" d="m124.44,70.37c-2.65,3.54-15.55,3.88-19.65.52,2.74-2.86,15.49-3.2,19.65-.52Z"/>
      <path class="cls-2" d="m104.44,78.26c3.25-3.2,15.71-3.48,19.86-.73-2.1,3.35-14.96,3.97-19.86.73Z"/>
      <path class="cls-1" d="m100.88,150.27h-25.12c-.47-2.97-.87-5.54-1.37-8.78h-20.57c-.51,2.76-.97,5.29-1.44,7.82-.46,0-.93,0-1.39-.01.22-4.74.09-9.55.9-14.19.22-1.28,3.27-2.89,5.05-2.93,12.66-.25,25.33-.13,37.99-.14,3.91,0,5.86,2.01,5.93,5.83.07,3.93.02,7.86.02,12.4Z"/>
    </g>
    <path class="cls-1" d="m70.25,150.32h-12.42v-4.81h12.42v4.81Z"/>
  </g>
</svg>