<?xml version="1.0" encoding="UTF-8"?>
<svg id="Layer_2" data-name="Layer 2" xmlns="http://www.w3.org/2000/svg" viewBox="0 0 125 122">
  <defs>
    <style>
      .cls-1 {
        fill: #feefe9;
      }

      .cls-2 {
        fill: #fffaf8;
      }

      .cls-3 {
        fill: #fff6f3;
      }

      .cls-4 {
        fill: none;
      }

      .cls-5 {
        fill: #fff8f5;
      }
    </style>
  </defs>
  <g id="die_line" data-name="die line">
    <path class="cls-4" d="m62.37.1c19.63,0,39.25.04,58.88-.05,2.57-.01,3.77,0,3.75,3.39-.18,38.41-.15,76.83-.03,115.24,0,2.83-.65,3.29-3.36,3.29-39.25-.11-78.51-.13-117.76.02-3.44.01-3.85-1.12-3.85-4.09C.1,79.83.1,41.75,0,3.67,0,.89.3-.03,3.49,0c19.62.21,39.25.1,58.88.1Zm9.98,59.3c.28-.09.73-.36.84-.26,10.6,9.45,21.34,18.75,31.66,28.49,3.99,3.77,2.81,10.25-1.56,14.46-3.54,3.4-9.35,3.86-13.36-.58-6.75-7.48-13.55-14.93-20.39-22.33-1.68-1.82-3.18-4.49-6.55-2.53.19.51.24,1.05.53,1.38,7.82,9.2,16.01,18.08,24.55,26.63,5.93,5.94,17.81,4.33,21.82-5.42,2.93-7.11-.11-13.08-7.74-19.32-8.55-6.99-16.56-14.66-24.8-22.03-1.04-.93-2-1.85-.45-3.22,10.65-9.34,18.59-21.69,31.56-28.42,1.72-.89,2.69-1.85,2.45-3.76-.21-1.64-7.63-8.78-9.44-9.09-1.64-.29-2.91.49-3.46,1.9-2.82,7.2-8.79,11.8-13.9,17.12-1.1,1.15-3.18,2.53-1.71,4.04,1.88,1.93,3.14-.61,4.34-1.73,2.67-2.5,5.22-5.12,7.79-7.72,1.35-1.36,2.61-1.25,3.82.12.61.69.68,1.23-.21,1.98-9.64,8.17-17.99,17.67-27.1,26.39-.87.83-1.65,2.37-3.23.84-1.85-1.8.05-2.61.96-3.55,3.36-3.46,6.78-6.86,10.2-10.25.93-.92,1.52-2,.54-3-.96-.98-2.09-.49-3.02.45-2.22,2.25-4.48,4.45-6.7,6.7-1.31,1.33-2.61,2.11-4.21.43-3.7-3.9-9.94-6.5-6.69-13.88.54-1.23.22-3-.12-4.42-3.81-15.73-14.13-21.26-29.13-19.63-1.58.17-3.86.36-4.44,2.18-.59,1.86,1.55,2.7,2.6,3.9,1.2,1.37,2.57,2.6,3.86,3.9,7.59,7.57,7.55,7.52-.63,14.57-1.93,1.67-3.3,1.69-5.03-.14-2.97-3.14-6.06-6.17-9.13-9.2-2.02-1.99-3.92-1.97-4.75.97-2.15,7.64-1.22,14.93,3.96,21.1,6.01,7.17,13.38,11.42,23.23,8.86,1.65-.43,3.5-.71,4.39,1.09,1.44,2.93,4.42,4.47,6.21,7.4-1.82.91-2.48,3.8-5.15,3.19-6.02-1.38-9.08,2.8-12.56,6.32-4.09,4.14-8.23,8.23-12.34,12.36-5.28,5.32-5.56,13.94-.64,18.96,5.82,5.92,12.67,5.87,18.91-.23,4.52-4.42,8.63-9.34,13.56-13.22,3.86-3.04,5.75-6.01,5.44-11.04-.28-4.38,4.34-8.17,8.23-6.84,5.4,1.84,6.36-3.02,8.81-5.24,2.26-2.05.16-4.5-1.22-6.53-.43-.64-1.32-1.12-.59-2.11Zm29.61,34.91c.08-3.75-1.57-5.39-5.05-5.38-3.53,0-5.65,1.87-5.85,5.15-.22,3.57,2.99,5.45,5.6,5.55,2.75.11,5.61-1.77,5.31-5.32Z"/>
    <path class="cls-5" d="m72.35,59.4c-.73.99.16,1.47.59,2.11,1.38,2.03,3.48,4.48,1.22,6.53-2.45,2.22-3.41,7.08-8.81,5.24-3.89-1.32-8.51,2.46-8.23,6.84.32,5.04-1.57,8.01-5.44,11.04-4.94,3.88-9.04,8.8-13.56,13.22-6.24,6.1-13.09,6.15-18.91.23-4.93-5.02-4.64-13.64.64-18.96,4.1-4.13,8.24-8.22,12.34-12.36,3.48-3.52,6.54-7.71,12.56-6.32,2.68.62,3.33-2.27,5.15-3.19-1.79-2.93-4.77-4.47-6.21-7.4-.88-1.8-2.74-1.52-4.39-1.09-9.85,2.57-17.22-1.69-23.23-8.86-5.18-6.17-6.11-13.46-3.96-21.1.83-2.94,2.73-2.96,4.75-.97,3.08,3.03,6.16,6.07,9.13,9.2,1.73,1.83,3.1,1.8,5.03.14,8.17-7.05,8.22-7,.63-14.57-1.3-1.29-2.66-2.52-3.86-3.9-1.05-1.19-3.2-2.04-2.6-3.9.58-1.82,2.86-2.01,4.44-2.18,15-1.63,25.31,3.9,29.13,19.63.34,1.42.67,3.2.12,4.42-3.25,7.37,3,9.97,6.69,13.88,1.6,1.68,2.9.9,4.21-.43,2.22-2.25,4.48-4.45,6.7-6.7.93-.94,2.06-1.44,3.02-.45.98,1,.39,2.08-.54,3-3.43,3.39-6.85,6.79-10.2,10.25-.91.94-2.81,1.76-.96,3.55,1.58,1.53,2.36,0,3.23-.84,9.11-8.72,17.46-18.21,27.1-26.39.89-.76.82-1.29.21-1.98-1.21-1.37-2.47-1.48-3.82-.12-2.57,2.6-5.12,5.23-7.79,7.72-1.2,1.12-2.45,3.66-4.34,1.73-1.47-1.51.6-2.89,1.71-4.04,5.11-5.32,11.09-9.91,13.9-17.12.55-1.41,1.82-2.19,3.46-1.9,1.81.32,9.23,7.45,9.44,9.09.24,1.92-.73,2.87-2.45,3.76-12.97,6.73-20.91,19.08-31.56,28.42-1.55,1.36-.59,2.28.45,3.22,8.24,7.38,16.25,15.04,24.8,22.03,7.64,6.24,10.67,12.21,7.74,19.32-4.02,9.74-15.89,11.36-21.82,5.42-8.53-8.55-16.72-17.42-24.55-26.63-.28-.33-.34-.87-.53-1.38,3.37-1.95,4.87.72,6.55,2.53,6.84,7.41,13.64,14.85,20.39,22.33,4.01,4.44,9.82,3.99,13.36.58,4.38-4.21,5.56-10.69,1.56-14.46-10.32-9.74-21.06-19.04-31.66-28.49-.12-.1-.57.17-.84.26ZM30.41,12.84c3.64,3.34,6.69,5.91,9.45,8.76,2.65,2.73,3.17,5.62-.16,8.47-2.01,1.72-3.9,3.63-5.65,5.62-4.87,5.54-7.27,3.35-11-.05-2.44-2.23-4.1-5.48-7.72-6.57-1.35,15.86,10.55,26.36,25.43,22.4,3.29-.87,4.24,1.06,5.62,2.58,1.85,2.04,3.33,2.51,5.02.05,2.84-4.15,6.76-5.12,11.98-3.36-1.52-2.75-3.44-3.9-5.25-5.29-2.57-1.98-5.15-4.01-3.88-8.19,4.47-14.69-9.71-28.01-23.84-24.43Zm-11.36,82.41c-.35,4.61,2.3,7.27,6,9.23,3.86,2.05,7.16.66,9.95-2.05,5.48-5.32,10.81-10.78,16.2-16.2.79-.8,1.58-1.48,1.82-2.79,2.15-11.7,2.18-11.74,13.21-13.44,2.28-.35,3.51-1.95,4.47-3.54,1.1-1.81-.74-2.94-1.88-4.08-2.46-2.47-4.93-4.93-7.4-7.39-1.03-1.03-2.05-2.71-3.67-1.84-1.67.89-3.44,2.12-3.71,4.32-.16,1.31.02,2.66-.06,3.98-.26,4.1-4.77,9.8-8.59,9.32-5.66-.71-8.43,2.73-11.65,5.96-3.87,3.87-7.72,7.78-11.62,11.62-1.96,1.92-3.35,4.03-3.06,6.9ZM105.99,22.42c-1.53-1.34-2.97-2.97-4.77-3.91-.45-.24-2.54,1.6-2.23,3.29.35,1.87,1.63,3.4,3.65,3.15,1.17-.15,2.89-.46,3.35-2.53Z"/>
    <path class="cls-3" d="m101.96,94.31c.31,3.55-2.55,5.43-5.31,5.32-2.61-.1-5.82-1.98-5.6-5.55.2-3.28,2.32-5.14,5.85-5.15,3.48,0,5.13,1.64,5.05,5.38Z"/>
    <path class="cls-4" d="m30.41,12.84c14.13-3.59,28.31,9.74,23.84,24.43-1.27,4.17,1.31,6.2,3.88,8.19,1.81,1.39,3.73,2.54,5.25,5.29-5.22-1.76-9.14-.79-11.98,3.36-1.68,2.46-3.17,1.99-5.02-.05-1.38-1.53-2.33-3.46-5.62-2.58-14.88,3.96-26.78-6.54-25.43-22.4,3.62,1.09,5.28,4.34,7.72,6.57,3.73,3.41,6.14,5.6,11,.05,1.75-1.99,3.63-3.9,5.65-5.62,3.32-2.84,2.81-5.74.16-8.47-2.77-2.85-5.82-5.42-9.45-8.76Z"/>
    <path class="cls-4" d="m19.05,95.26c-.29-2.89,1.1-4.99,3.06-6.91,3.91-3.84,7.75-7.75,11.62-11.62,3.23-3.22,5.99-6.66,11.65-5.96,3.82.48,8.34-5.22,8.59-9.32.08-1.32-.1-2.67.06-3.98.27-2.2,2.04-3.42,3.71-4.32,1.63-.87,2.64.81,3.67,1.84,2.47,2.46,4.94,4.92,7.4,7.39,1.14,1.14,2.98,2.27,1.88,4.08-.97,1.59-2.19,3.19-4.47,3.54-11.04,1.7-11.06,1.74-13.21,13.44-.24,1.31-1.03,1.99-1.82,2.79-5.39,5.41-10.72,10.88-16.2,16.2-2.8,2.71-6.09,4.1-9.95,2.05-3.7-1.96-6.35-4.62-6-9.22Zm29.91-12.81c0-.73-.27-1.32-1.06-1.4-1.14-.11-2.24-.19-3.2.79-4.25,4.32-8.55,8.58-12.83,12.88-1.09,1.1-1.24,2.24-.14,3.46,1.46,1.61,2.28.24,3.17-.65,4.22-4.2,8.43-8.4,12.62-12.63.68-.68,1.57-1.28,1.44-2.45Zm-6.01-4.63c.12-.84.1-1.65-.69-1.73-.76-.08-1.81,0-2.29.47-4.76,4.64-9.42,9.39-14.12,14.08-.88.88-.92,1.64,0,2.51.67.64,1.38,1.05,2.13.3,4.94-4.93,9.85-9.88,14.75-14.85.2-.2.18-.62.22-.78Z"/>
    <path class="cls-4" d="m105.99,22.42c-.46,2.07-2.18,2.38-3.35,2.53-2.02.26-3.3-1.28-3.65-3.15-.31-1.68,1.78-3.52,2.23-3.29,1.8.94,3.24,2.57,4.77,3.91Z"/>
    <path class="cls-1" d="m48.97,82.45c.13,1.17-.76,1.78-1.44,2.46-4.19,4.22-8.4,8.43-12.62,12.63-.9.89-1.72,2.27-3.17.65-1.1-1.22-.95-2.36.14-3.46,4.28-4.29,8.58-8.55,12.83-12.88.96-.98,2.06-.89,3.2-.79.79.07,1.05.66,1.06,1.39Z"/>
    <path class="cls-2" d="m42.95,77.83c-.04.16-.02.58-.22.78-4.9,4.97-9.81,9.92-14.75,14.85-.75.75-1.46.34-2.13-.3-.92-.87-.89-1.62,0-2.51,4.71-4.7,9.36-9.44,14.12-14.08.48-.47,1.54-.55,2.29-.47.78.08.81.89.69,1.73Z"/>
  </g>
</svg>