<?xml version="1.0" encoding="UTF-8"?>
<svg id="Layer_2" data-name="Layer 2" xmlns="http://www.w3.org/2000/svg" viewBox="0 0 230 230">
  <defs>
    <style>
      .cls-1 {
        fill: #fff;
      }

      .cls-2 {
        fill: #f15a29;
      }

      .cls-3 {
        fill: none;
      }
    </style>
  </defs>
  <g id="Layer_1-2" data-name="Layer 1">
    <path class="cls-1" d="m0,230V0h230v230H0ZM156.81,82.29c2-4.36,3.57-7.63,5.02-10.94,3.58-8.17,6.19-16.54,5.17-25.65-.94-8.41-6.87-14.67-14.49-15.53-3.4-.38-4.87.87-6.18,4.12-2.58,6.42-5.09,13.18-9.2,18.61-12.36,16.33-28.83,27.46-47.99,34.53-1.47.54-3.7-.71-5.48-1.36-3.15-1.16-6.16-3.32-9.37-3.6-6.45-.57-12.99-.19-19.49-.17-8.15.03-12.36,4.1-12.38,12.25-.06,21.5-.06,43,0,64.51.02,7.99,4.36,12.4,12.32,12.54,6.5.12,13.05.45,19.49-.16,3.21-.3,6.99-1.78,9.16-4.03,2.68-2.78,5.27-3.4,8.38-2.39,7.24,2.35,14.72,4.31,21.47,7.7,11.86,5.95,24.32,6.81,37,5.69,6.85-.6,12.61-4.14,15.41-11.14.46-1.15,1.56-2.03,2.26-3.11,2.67-4.1,6.35-7.92,7.67-12.42,1.76-6.01,3.12-11.87,6.57-17.34,2-3.16,2.95-7.67,2.66-11.44-.5-6.51-.01-12.43,2.51-18.61,1.46-3.58.93-8.26.34-12.31-.93-6.47-5.25-9.69-11.86-9.74-5.98-.04-11.95,0-18.99,0Z"/>
    <path class="cls-2" d="m156.81,82.29c7.03,0,13.01-.03,18.99,0,6.6.05,10.93,3.27,11.86,9.74.58,4.05,1.12,8.74-.34,12.31-2.53,6.18-3.01,12.09-2.51,18.61.29,3.77-.67,8.28-2.66,11.44-3.45,5.47-4.81,11.33-6.57,17.34-1.32,4.5-5,8.32-7.67,12.42-.7,1.07-1.8,1.96-2.26,3.11-2.8,7-8.56,10.54-15.41,11.14-12.67,1.12-25.14.26-37-5.69-6.75-3.39-14.23-5.35-21.47-7.7-3.11-1.01-5.7-.39-8.38,2.39-2.17,2.25-5.95,3.72-9.16,4.03-6.45.61-12.99.28-19.49.16-7.96-.14-12.3-4.55-12.32-12.54-.05-21.5-.06-43,0-64.51.02-8.15,4.23-12.22,12.38-12.25,6.5-.02,13.04-.41,19.49.17,3.2.28,6.21,2.44,9.37,3.6,1.79.66,4.02,1.91,5.48,1.36,19.16-7.07,35.63-18.2,47.99-34.53,4.11-5.43,6.62-12.19,9.2-18.61,1.31-3.25,2.78-4.51,6.18-4.12,7.62.86,13.55,7.12,14.49,15.53,1.02,9.11-1.59,17.48-5.17,25.65-1.45,3.32-3.02,6.59-5.02,10.94Zm-2.95-44.76c-4.71,7.63-8.45,15.34-13.67,21.85-13.02,16.22-30.01,27.18-49.39,34.48-2.64.99-4.71,1.91-4.69,5.41.13,18.17.08,36.34.05,54.51,0,2.79,1.19,3.86,4,4.61,8.13,2.19,16.54,4.04,24.05,7.66,10.76,5.19,21.8,6.87,33.43,6.21,7.17-.4,10.24-3.07,12.75-10.28.34-.98,1.14-2.03,2.02-2.56,6.82-4.09,9.12-9.89,7.29-18.01-.27-1.18.29-3.47,1.08-3.81,6.79-2.88,7.28-9.04,8.04-14.96.33-2.58.2-5.09-3.08-6.55-2.91-1.29-3.33-4.03-.17-5.64,6.68-3.41,6.58-9.47,6.34-15.44-.17-4.24-2.62-6.5-7.24-6.38-7.33.2-14.67.1-22.01.03-4.92-.05-5.96-1.87-3.67-6.26,2.38-4.58,4.9-9.09,7.24-13.68,3.65-7.15,5.16-14.73,4.23-22.74-.52-4.51-2.56-7.75-6.61-8.45ZM48.74,126.55c0,10.66.1,21.33-.05,31.99-.06,4.44,1.83,6.52,6.19,6.51,6.33,0,12.67,0,19,0,4.07,0,6.2-1.94,6.2-6.09,0-21.33,0-42.65,0-63.98,0-4.38-2.22-6.35-6.53-6.31-6,.05-12-.05-18,.03-5.36.07-6.79,1.5-6.81,6.85-.05,10.33-.01,20.66-.01,30.99Z"/>
    <path class="cls-3" d="m153.86,37.53c4.05.7,6.09,3.94,6.61,8.45.93,8-.58,15.59-4.23,22.74-2.35,4.6-4.86,9.11-7.24,13.68-2.28,4.39-1.24,6.21,3.67,6.26,7.34.08,14.68.17,22.01-.03,4.62-.12,7.08,2.14,7.24,6.38.24,5.97.33,12.04-6.34,15.44-3.16,1.61-2.74,4.36.17,5.64,3.29,1.46,3.42,3.97,3.08,6.55-.76,5.93-1.26,12.08-8.04,14.96-.79.34-1.35,2.63-1.08,3.81,1.84,8.12-.46,13.92-7.29,18.01-.88.53-1.68,1.58-2.02,2.56-2.51,7.22-5.58,9.88-12.75,10.28-11.63.65-22.67-1.02-33.43-6.21-7.51-3.62-15.92-5.48-24.05-7.66-2.81-.76-4-1.83-4-4.61.03-18.17.08-36.34-.05-54.51-.02-3.5,2.05-4.42,4.69-5.41,19.39-7.3,36.37-18.26,49.39-34.48,5.23-6.51,8.97-14.22,13.67-21.85Z"/>
    <path class="cls-3" d="m48.74,126.55c0-10.33-.03-20.66.01-30.99.02-5.35,1.45-6.79,6.81-6.85,6-.07,12,.02,18-.03,4.3-.04,6.53,1.92,6.53,6.31-.01,21.33,0,42.65,0,63.98,0,4.15-2.13,6.09-6.2,6.09-6.33,0-12.67,0-19,0-4.36,0-6.25-2.08-6.19-6.51.15-10.66.05-21.33.05-31.99Z"/>
  </g>
</svg>