<?xml version="1.0" encoding="UTF-8"?>
<svg id="Layer_2" data-name="Layer 2" xmlns="http://www.w3.org/2000/svg" viewBox="0 0 127.15 124">
  <defs>
    <style>
      .cls-1 {
        fill: #fff;
      }

      .cls-2 {
        fill: none;
      }
    </style>
  </defs>
  <g id="die_line" data-name="die line">
    <path class="cls-2" d="m127.15,124H0V0h127.15v124Zm-33.08-79.98c-.15-.7-.26-.9-.21-1.03.43-.95.9-1.89,1.36-2.84,3.1-6.51,5.74-13.13,5.19-20.58-.46-6.26-5.23-11.5-11.33-12.3-2.91-.38-4.14.7-5.04,3.32-1.27,3.67-2.42,7.57-4.57,10.72-8.71,12.79-21.06,20.98-35.31,26.5-.59.23-1.58-.45-2.33-.81-1.98-.96-3.89-2.69-5.91-2.83-5.66-.39-11.37-.21-17.06-.11-4.01.07-7.45,3.62-7.46,7.67-.04,16.11-.05,32.22,0,48.32.01,4.4,3.5,7.74,7.9,7.77,5.25.04,10.51-.09,15.76.05,2.92.08,5.2-1.06,6.81-3.25,1.11-1.51,2.39-1.79,3.84-1.36,4.34,1.27,8.94,2.12,12.87,4.21,8.82,4.69,18.09,6.37,27.86,5.53,5.69-.49,10.44-2.82,12.77-8.55.25-.61.63-1.27,1.15-1.64,3.78-2.74,5.57-6.6,6.43-11.03.38-1.94.26-4.29,1.35-5.71,4.29-5.61,5.71-11.63,4.02-18.47-.18-.73.13-1.73.53-2.42,2.16-3.7,2.87-7.7,2.46-11.87-.52-5.25-3.69-9.86-10.09-9.31-2.09.18-4.2.03-6.3.03-1.61,0-3.21,0-4.69,0Z"/>
    <path class="cls-1" d="m94.06,44.02c1.48,0,3.08,0,4.69,0,2.1,0,4.22.15,6.3-.03,6.41-.55,9.58,4.06,10.09,9.31.41,4.17-.3,8.18-2.46,11.87-.4.69-.71,1.69-.53,2.42,1.7,6.84.27,12.86-4.02,18.47-1.09,1.42-.97,3.78-1.35,5.71-.86,4.43-2.65,8.29-6.43,11.03-.51.37-.9,1.03-1.15,1.64-2.34,5.74-7.08,8.06-12.77,8.55-9.77.84-19.04-.84-27.86-5.53-3.93-2.09-8.53-2.94-12.87-4.21-1.45-.43-2.73-.14-3.84,1.36-1.61,2.18-3.89,3.32-6.81,3.25-5.25-.14-10.5,0-15.76-.05-4.4-.03-7.89-3.38-7.9-7.77-.05-16.11-.05-32.22,0-48.32.01-4.05,3.45-7.59,7.46-7.67,5.69-.1,11.4-.28,17.06.11,2.02.14,3.93,1.87,5.91,2.83.75.36,1.74,1.04,2.33.81,14.25-5.52,26.59-13.71,35.31-26.5,2.15-3.15,3.3-7.05,4.57-10.72.9-2.61,2.13-3.7,5.04-3.32,6.1.8,10.87,6.04,11.33,12.3.55,7.45-2.1,14.06-5.19,20.58-.45.95-.92,1.88-1.36,2.84-.06.13.06.33.21,1.03Zm-3.88-29.87c-1.75,3.44-3.07,6.81-5.03,9.76-9.5,14.28-22.97,23.5-38.73,29.6-1.91.74-2.71,1.49-2.69,3.66.12,12.26.13,24.51,0,36.77-.02,2.26.79,2.91,2.82,3.41,4.55,1.13,9.28,2.03,13.46,4.04,7.87,3.79,15.86,6.34,24.68,5.69,3.11-.23,6.7-.6,8-3.52,1.34-3,2.95-5.13,5.47-7.27,2.64-2.24,3.48-5.94,2.28-9.66-.63-1.95-.33-3.42,1.89-4.47,1.33-.63,2.6-2.11,3.14-3.5.77-1.98.9-4.22,1.18-6.37.19-1.42.04-2.59-1.75-3.25-.86-.32-1.8-1.89-1.74-2.83.06-.93,1.29-1.82,2.07-2.66.85-.91,2.13-1.6,2.58-2.66.73-1.73,1.4-3.72,1.27-5.54-.33-4.65-.75-5.49-5.07-5.35-4.9.16-9.8.05-14.71.03-4.14-.01-5.25-2.01-3.27-5.71,1.89-3.54,3.84-7.07,5.56-10.7,2.23-4.68,3.02-9.65,2.27-14.81-.32-2.22-1.4-3.9-3.67-4.67Zm-52.88,61.78c0-7.53-.07-15.06.04-22.59.03-2.38-.83-3.35-3.19-3.32-4.55.07-9.11.05-13.66,0-2.25-.02-3.14,1.09-3.14,3.23.01,15.15.02,30.3,0,45.45,0,2.2.99,3.18,3.2,3.16,4.47-.05,8.93-.08,13.4.01,2.42.05,3.45-.76,3.4-3.35-.13-7.53-.05-15.06-.05-22.59Z"/>
    <path class="cls-2" d="m90.19,14.14c2.27.77,3.35,2.45,3.67,4.67.75,5.16-.04,10.13-2.27,14.81-1.73,3.63-3.67,7.15-5.56,10.7-1.98,3.71-.86,5.7,3.27,5.71,4.9.01,9.81.12,14.71-.03,4.32-.14,4.74.7,5.07,5.35.13,1.82-.54,3.81-1.27,5.54-.45,1.06-1.73,1.74-2.58,2.66-.78.84-2.02,1.73-2.07,2.66-.06.94.88,2.51,1.74,2.83,1.79.66,1.94,1.83,1.75,3.25-.28,2.15-.42,4.39-1.18,6.37-.54,1.39-1.81,2.87-3.14,3.5-2.21,1.05-2.51,2.52-1.89,4.47,1.2,3.72.36,7.42-2.28,9.66-2.52,2.14-4.13,4.27-5.47,7.27-1.3,2.92-4.89,3.3-8,3.52-8.82.64-16.81-1.9-24.68-5.69-4.17-2.01-8.91-2.92-13.46-4.04-2.03-.5-2.84-1.15-2.82-3.41.13-12.26.12-24.51,0-36.77-.02-2.17.78-2.92,2.69-3.66,15.77-6.1,29.23-15.32,38.73-29.6,1.96-2.95,3.28-6.32,5.03-9.76Z"/>
    <path class="cls-2" d="m37.31,75.92c0,7.53-.09,15.06.05,22.59.05,2.59-.98,3.4-3.4,3.35-4.46-.1-8.93-.06-13.4-.01-2.21.03-3.2-.96-3.2-3.16.02-15.15.02-30.3,0-45.45,0-2.14.89-3.25,3.14-3.23,4.55.05,9.11.06,13.66,0,2.36-.04,3.23.94,3.19,3.32-.11,7.53-.04,15.06-.04,22.59Z"/>
  </g>
</svg>