<?xml version="1.0" encoding="UTF-8"?>
<svg id="Layer_2" data-name="Layer 2" xmlns="http://www.w3.org/2000/svg" viewBox="0 0 120 133">
  <defs>
    <style>
      .cls-1 {
        fill: #fff;
      }

      .cls-2 {
        fill: none;
      }
    </style>
  </defs>
  <g id="die_line" data-name="die line">
    <path class="cls-2" d="m120,133H0V0h120v133ZM6.91,47.53c.12.68.25,2.86.88,4.9,9.95,32.28,31.55,53.28,63.04,64.38,6.76,2.38,13.88,2.44,19.79-2.8,2.98-2.64,5.8-5.52,8.44-8.51,4.16-4.72,4.36-9.29.26-13.88-4.1-4.59-8.46-8.98-13.03-13.1-4.42-3.99-9.35-3.82-14.01,0-1.54,1.26-3.06,2.62-4.29,4.18-2.03,2.57-4.14,2.53-6.35.53-5.53-5.01-11.39-9.73-16.36-15.25-6.51-7.23-6.19-7.51.41-14.68,4.96-5.38,4.99-10.58-.07-15.89-3.68-3.86-7.48-7.6-11.29-11.33-2.94-2.88-6.48-4.1-10.52-2.95-7.16,2.06-16.92,15.36-16.92,24.38Zm101.47,14.65c-.49-1.97-.71-2.94-.97-3.9-5.88-21.91-19.96-35.36-41.9-40.85-2.8-.7-5.46-.75-5.79,2.38-.14,1.27,2.49,3.78,4.2,4.16,9.73,2.17,17.9,6.87,24.77,13.98,6.42,6.64,10.18,14.6,12.33,23.53.36,1.48,2.6,2.98,4.27,3.46.78.22,2.25-1.97,3.09-2.76Zm-18.33,1.12c-.49-12.55-16.14-28.03-27.47-28.07-1.25,0-3.56,1.67-3.53,2.49.05,1.4,1.35,3.68,2.52,3.97,11.72,2.87,18.7,10.11,21.57,21.75.29,1.16,2.71,2.58,4.04,2.47,1.23-.09,2.31-2.06,2.87-2.61Z"/>
    <path class="cls-1" d="m6.91,47.53c0-9.02,9.75-22.32,16.92-24.38,4.04-1.16,7.58.07,10.52,2.95,3.81,3.73,7.61,7.48,11.29,11.33,5.06,5.3,5.03,10.51.07,15.89-6.61,7.17-6.92,7.45-.41,14.68,4.97,5.52,10.83,10.24,16.36,15.25,2.21,2,4.33,2.04,6.35-.53,1.23-1.55,2.75-2.91,4.29-4.18,4.66-3.81,9.59-3.99,14.01,0,4.57,4.12,8.93,8.51,13.03,13.1,4.09,4.59,3.9,9.16-.26,13.88-2.64,2.99-5.45,5.86-8.44,8.51-5.92,5.24-13.03,5.18-19.79,2.8-31.49-11.1-53.1-32.1-63.04-64.38-.63-2.04-.77-4.23-.88-4.9Zm72.44,64.7c2.94-1.87,6.25-3.3,8.7-5.65,8.31-7.97,10.18-6.74.04-16.7-8.65-8.5-8.68-8.65-17.19-.2-2.96,2.95-5.75,3.43-9.33,1.45-11.18-6.19-20.1-14.75-26.71-25.64-4.18-6.9-3.98-7.28,1.91-13.05,1.19-1.17,2.35-2.36,3.51-3.55,2.26-2.31,2.39-4.61.03-6.95-3.54-3.52-6.94-7.21-10.68-10.51-1.09-.96-3.54-1.62-4.71-1.06-8.48,4.05-12.74,12.99-9.81,22.09,8.15,25.32,25.04,43.12,48.82,54.51,4.56,2.18,9.62,3.32,15.42,5.26Z"/>
    <path class="cls-1" d="m108.38,62.17c-.84.79-2.31,2.99-3.09,2.76-1.67-.48-3.91-1.98-4.27-3.46-2.15-8.93-5.91-16.89-12.33-23.53-6.88-7.12-15.04-11.81-24.77-13.98-1.72-.38-4.34-2.89-4.2-4.16.33-3.13,3-3.08,5.79-2.38,21.93,5.48,36.02,18.94,41.9,40.85.26.96.48,1.93.97,3.9Z"/>
    <path class="cls-1" d="m90.05,63.3c-.56.55-1.64,2.52-2.87,2.61-1.33.1-3.75-1.31-4.04-2.47-2.87-11.64-9.85-18.88-21.57-21.75-1.17-.29-2.47-2.57-2.52-3.97-.03-.82,2.28-2.49,3.53-2.49,11.33.04,26.98,15.52,27.47,28.07Z"/>
    <path class="cls-2" d="m79.35,112.23c-5.8-1.94-10.86-3.08-15.42-5.26-23.77-11.39-40.66-29.19-48.82-54.51-2.93-9.1,1.33-18.04,9.81-22.09,1.18-.56,3.62.1,4.71,1.06,3.74,3.3,7.13,6.99,10.68,10.51,2.36,2.35,2.23,4.65-.03,6.95-1.17,1.19-2.32,2.39-3.51,3.55-5.89,5.77-6.09,6.16-1.91,13.05,6.61,10.89,15.53,19.44,26.71,25.64,3.59,1.99,6.37,1.5,9.33-1.45,8.5-8.46,8.54-8.31,17.19.2,10.13,9.96,8.27,8.73-.04,16.7-2.44,2.34-5.76,3.78-8.7,5.65Z"/>
  </g>
</svg>